<svg xmlns="http://www.w3.org/2000/svg" viewBox="0 0 1440 3400" width="1440" height="3400">
  <defs>
    <style>
      .bg-dark { fill: #0f172a; }
      .bg-light { fill: #f8fafc; }
      .bg-white { fill: #ffffff; }
      .bg-slate { fill: #f1f5f9; }
      .card { fill: #ffffff; stroke: #e5e7eb; stroke-width: 1; }
      .card-dark { fill: #1e293b; stroke: #334155; stroke-width: 1; }
      .primary { fill: #2563eb; }
      .primary-light { fill: #dbeafe; }
      .primary-glow { fill: #3b82f6; filter: drop-shadow(0 0 20px rgba(59, 130, 246, 0.5)); }
      .success { fill: #10b981; }
      .success-glow { fill: #10b981; filter: drop-shadow(0 0 15px rgba(16, 185, 129, 0.6)); }
      .text-dark { fill: #0f172a; font-family: system-ui, sans-serif; }
      .text-medium { fill: #475569; font-family: system-ui, sans-serif; }
      .text-light { fill: #94a3b8; font-family: system-ui, sans-serif; }
      .text-white { fill: #ffffff; font-family: system-ui, sans-serif; }
      .text-glow { fill: #ffffff; font-family: system-ui, sans-serif; filter: drop-shadow(0 0 10px rgba(255,255,255,0.3)); }
      .ticker-amount { fill: #10b981; font-family: system-ui, sans-serif; font-weight: bold; }
      .ticker-text { fill: #e2e8f0; font-family: system-ui, sans-serif; }
      .counter-glow { filter: drop-shadow(0 0 30px rgba(16, 185, 129, 0.4)); }
      .legal-tag { fill: #fef3c7; }
      .legal-text { fill: #92400e; }
      .medical-tag { fill: #d1fae5; }
      .medical-text { fill: #065f46; }
      .shadow { filter: drop-shadow(0 10px 30px rgba(0, 0, 0, 0.15)); }
      .shadow-sm { filter: drop-shadow(0 4px 12px rgba(0, 0, 0, 0.08)); }
      .icon-bg { fill: #eff6ff; }
      .quote-bg { fill: #f8fafc; }
      .footer-dark { fill: #0f172a; }
      .footer-section { fill: #1e293b; }
      .annotation { fill: #dc2626; font-family: system-ui, sans-serif; font-style: italic; }
      .annotation-box { fill: #fef2f2; stroke: #dc2626; stroke-width: 1; stroke-dasharray: 4; }
    </style>
    <linearGradient id="fadeLeft" x1="0%" y1="0%" x2="100%" y2="0%">
      <stop offset="0%" style="stop-color:#0f172a;stop-opacity:1" />
      <stop offset="100%" style="stop-color:#0f172a;stop-opacity:0" />
    </linearGradient>
    <linearGradient id="fadeRight" x1="0%" y1="0%" x2="100%" y2="0%">
      <stop offset="0%" style="stop-color:#0f172a;stop-opacity:0" />
      <stop offset="100%" style="stop-color:#0f172a;stop-opacity:1" />
    </linearGradient>
  </defs>

  <!-- ========== DARK HERO SECTION ========== -->
  <rect class="bg-dark" x="0" y="0" width="1440" height="900"/>

  <!-- Nav -->
  <g transform="translate(80, 30)">
    <text x="0" y="24" class="text-white" font-size="24" font-weight="bold">AI Saved Me</text>
    <text x="600" y="24" class="text-light" font-size="15">Stories</text>
    <text x="700" y="24" class="text-light" font-size="15">How It Works</text>
    <rect fill="transparent" stroke="#475569" stroke-width="1" x="1080" y="0" width="90" height="40" rx="6"/>
    <text x="1100" y="26" class="text-light" font-size="14">Sign In</text>
    <rect class="primary" x="1190" y="0" width="130" height="40" rx="6"/>
    <text x="1207" y="26" class="text-white" font-size="14" font-weight="500">Share a Win</text>
  </g>

  <!-- Main Headline -->
  <text x="720" y="160" class="text-glow" font-size="56" font-weight="bold" text-anchor="middle">Real people winning with AI.</text>
  <text x="720" y="210" class="text-light" font-size="20" text-anchor="middle">Watch the victories roll in.</text>

  <!-- ========== LIVE COUNTER ========== -->
  <g transform="translate(720, 280)" class="counter-glow">
    <text x="0" y="0" class="text-light" font-size="14" text-anchor="middle" letter-spacing="3">TOTAL SAVED BY OUR COMMUNITY</text>
    <text x="0" y="80" class="success-glow" font-size="96" font-weight="bold" text-anchor="middle">$2,847,392</text>
    <text x="0" y="110" class="text-light" font-size="14" text-anchor="middle">and counting...</text>
  </g>

  <!-- Live Indicator -->
  <g transform="translate(660, 420)">
    <circle class="success" cx="8" cy="8" r="8" opacity="0.3"/>
    <circle class="success" cx="8" cy="8" r="4"/>
    <text x="24" y="13" class="success" font-size="13" font-weight="600">LIVE</text>
  </g>

  <!-- ========== VICTORY TICKER ========== -->
  <g transform="translate(0, 460)">
    <rect fill="#0f172a" x="0" y="0" width="1440" height="320"/>

    <!-- Ticker Row 1 -->
    <g transform="translate(0, 20)">
      <g transform="translate(30, 0)">
        <rect class="card-dark" width="320" height="120" rx="12"/>
        <rect class="legal-tag" x="15" y="15" width="55" height="22" rx="11"/>
        <text x="28" y="30" class="legal-text" font-size="10" font-weight="600">Legal</text>
        <text x="15" y="60" class="ticker-amount" font-size="24">$3,200</text>
        <text x="105" y="60" class="ticker-text" font-size="14">saved</text>
        <text x="15" y="85" class="ticker-text" font-size="13">Enterprise damage claim defeated</text>
        <text x="15" y="105" class="text-light" font-size="11">Ankush D. - 2 hours ago</text>
      </g>
      <g transform="translate(370, 0)">
        <rect class="card-dark" width="320" height="120" rx="12"/>
        <rect class="medical-tag" x="15" y="15" width="65" height="22" rx="11"/>
        <text x="25" y="30" class="medical-text" font-size="10" font-weight="600">Medical</text>
        <text x="15" y="60" class="success" font-size="18" font-weight="bold">Diagnosis confirmed</text>
        <text x="15" y="85" class="ticker-text" font-size="13">AI identified kidney stones, doctor agreed</text>
        <text x="15" y="105" class="text-light" font-size="11">Raj P. - 5 hours ago</text>
      </g>
      <g transform="translate(710, 0)">
        <rect class="card-dark" width="320" height="120" rx="12"/>
        <rect class="legal-tag" x="15" y="15" width="55" height="22" rx="11"/>
        <text x="28" y="30" class="legal-text" font-size="10" font-weight="600">Legal</text>
        <text x="15" y="60" class="ticker-amount" font-size="24">$2,400</text>
        <text x="105" y="60" class="ticker-text" font-size="14">recovered</text>
        <text x="15" y="85" class="ticker-text" font-size="13">Security deposit returned in full</text>
        <text x="15" y="105" class="text-light" font-size="11">Sarah M. - 8 hours ago</text>
      </g>
      <g transform="translate(1050, 0)">
        <rect class="card-dark" width="320" height="120" rx="12"/>
        <rect class="legal-tag" x="15" y="15" width="55" height="22" rx="11"/>
        <text x="28" y="30" class="legal-text" font-size="10" font-weight="600">Legal</text>
        <text x="15" y="60" class="ticker-amount" font-size="24">$12,000</text>
        <text x="130" y="60" class="ticker-text" font-size="14">approved</text>
        <text x="15" y="85" class="ticker-text" font-size="13">Insurance denial overturned</text>
        <text x="15" y="105" class="text-light" font-size="11">Lisa K. - 1 day ago</text>
      </g>
    </g>

    <!-- Ticker Row 2 -->
    <g transform="translate(0, 160)">
      <g transform="translate(80, 0)">
        <rect class="card-dark" width="320" height="120" rx="12"/>
        <rect class="legal-tag" x="15" y="15" width="55" height="22" rx="11"/>
        <text x="28" y="30" class="legal-text" font-size="10" font-weight="600">Legal</text>
        <text x="15" y="60" class="ticker-amount" font-size="24">$5,500</text>
        <text x="105" y="60" class="ticker-text" font-size="14">won</text>
        <text x="15" y="85" class="ticker-text" font-size="13">Contractor paid after small claims prep</text>
        <text x="15" y="105" class="text-light" font-size="11">Mike R. - 1 day ago</text>
      </g>
      <g transform="translate(420, 0)">
        <rect class="card-dark" width="320" height="120" rx="12"/>
        <rect class="medical-tag" x="15" y="15" width="65" height="22" rx="11"/>
        <text x="25" y="30" class="medical-text" font-size="10" font-weight="600">Medical</text>
        <text x="15" y="60" class="success" font-size="18" font-weight="bold">ER visit avoided</text>
        <text x="15" y="85" class="ticker-text" font-size="13">AI symptom check saved unnecessary trip</text>
        <text x="15" y="105" class="text-light" font-size="11">James T. - 2 days ago</text>
      </g>
      <g transform="translate(760, 0)">
        <rect class="card-dark" width="320" height="120" rx="12"/>
        <rect class="legal-tag" x="15" y="15" width="55" height="22" rx="11"/>
        <text x="28" y="30" class="legal-text" font-size="10" font-weight="600">Legal</text>
        <text x="15" y="60" class="ticker-amount" font-size="24">$1,500</text>
        <text x="105" y="60" class="ticker-text" font-size="14">removed</text>
        <text x="15" y="85" class="ticker-text" font-size="13">HOA fine overturned with AI research</text>
        <text x="15" y="105" class="text-light" font-size="11">David P. - 2 days ago</text>
      </g>
      <g transform="translate(1100, 0)">
        <rect class="card-dark" width="320" height="120" rx="12"/>
        <rect class="legal-tag" x="15" y="15" width="55" height="22" rx="11"/>
        <text x="28" y="30" class="legal-text" font-size="10" font-weight="600">Legal</text>
        <text x="15" y="60" class="success" font-size="18" font-weight="bold">Debt forgiven</text>
        <text x="15" y="85" class="ticker-text" font-size="13">Collection harassment stopped</text>
        <text x="15" y="105" class="text-light" font-size="11">Tom B. - 3 days ago</text>
      </g>
    </g>

    <rect fill="url(#fadeLeft)" x="0" y="0" width="100" height="320"/>
    <rect fill="url(#fadeRight)" x="1340" y="0" width="100" height="320"/>
  </g>

  <text x="720" y="820" class="text-light" font-size="14" text-anchor="middle">Click any card to read the full story</text>

  <!-- CTA Buttons -->
  <g transform="translate(520, 850)">
    <rect class="primary-glow" x="0" y="0" width="200" height="52" rx="8"/>
    <text x="50" y="32" class="text-white" font-size="16" font-weight="600">Browse Stories</text>
    <rect fill="transparent" stroke="#475569" stroke-width="2" x="220" y="0" width="200" height="52" rx="8"/>
    <text x="265" y="32" class="text-white" font-size="16" font-weight="600">Share a Win</text>
  </g>

  <!-- ========== FEATURED STORY SECTION ========== -->
  <rect class="bg-light" x="0" y="920" width="1440" height="480"/>

  <text x="720" y="990" class="text-dark" font-size="36" font-weight="bold" text-anchor="middle">Featured Story</text>
  <text x="720" y="1025" class="text-medium" font-size="16" text-anchor="middle">See exactly how AI made the difference</text>

  <!-- Featured Story Card -->
  <g transform="translate(180, 1060)" class="shadow">
    <rect class="card" width="1080" height="300" rx="16"/>
    <rect fill="#e2e8f0" x="0" y="0" width="380" height="300" rx="16 0 0 16"/>
    <text x="190" y="155" class="text-medium" font-size="14" text-anchor="middle">Story Hero Image</text>
    <g transform="translate(410, 30)">
      <rect class="legal-tag" x="0" y="0" width="80" height="28" rx="14"/>
      <text x="18" y="19" class="legal-text" font-size="12" font-weight="600">Legal Win</text>
      <text x="0" y="60" class="text-dark" font-size="26" font-weight="bold">How I Beat Enterprise's</text>
      <text x="0" y="92" class="text-dark" font-size="26" font-weight="bold">$3,200 Damage Claim</text>
      <text x="0" y="130" class="text-medium" font-size="15">Using Claude, I built a systematic legal defense that made</text>
      <text x="0" y="152" class="text-medium" font-size="15">them drop the claim entirely within one week.</text>
      <g transform="translate(0, 175)">
        <rect fill="#f1f5f9" x="0" y="0" width="620" height="45" rx="8"/>
        <text x="15" y="18" class="text-light" font-size="11">From the AI chat:</text>
        <text x="15" y="34" class="text-dark" font-size="12" font-style="italic">"Based on your evidence, Enterprise has no legal basis for this claim..."</text>
      </g>
      <g transform="translate(0, 240)">
        <circle fill="#cbd5e1" cx="16" cy="16" r="16"/>
        <text x="42" y="12" class="text-dark" font-size="13" font-weight="500">Ankush D.</text>
        <text x="42" y="28" class="text-light" font-size="11">5 min read - $3,200 saved</text>
        <rect class="primary" x="480" y="0" width="140" height="36" rx="6"/>
        <text x="510" y="24" class="text-white" font-size="13" font-weight="600">Read Story</text>
      </g>
    </g>
  </g>

  <!-- ========== CATEGORY CARDS ========== -->
  <rect class="bg-light" x="0" y="1400" width="1440" height="220"/>

  <text x="720" y="1450" class="text-dark" font-size="28" font-weight="bold" text-anchor="middle">Jump Into a Category</text>

  <g transform="translate(320, 1480)" class="shadow-sm">
    <rect class="card" width="380" height="120" rx="12"/>
    <rect fill="#fef3c7" x="0" y="0" width="6" height="120" rx="12 0 0 12"/>
    <text x="30" y="40" class="text-dark" font-size="22" font-weight="bold">Legal Wins</text>
    <text x="30" y="65" class="text-medium" font-size="13">Disputes, claims, contracts, tenant rights</text>
    <text x="30" y="100" class="text-dark" font-size="24" font-weight="bold">142</text>
    <text x="85" y="100" class="text-medium" font-size="13">stories</text>
    <text x="280" y="100" class="primary" font-size="13" font-weight="600">Explore</text>
  </g>

  <g transform="translate(740, 1480)" class="shadow-sm">
    <rect class="card" width="380" height="120" rx="12"/>
    <rect fill="#d1fae5" x="0" y="0" width="6" height="120" rx="12 0 0 12"/>
    <text x="30" y="40" class="text-dark" font-size="22" font-weight="bold">Medical Wins</text>
    <text x="30" y="65" class="text-medium" font-size="13">Symptoms, diagnoses, insurance, research</text>
    <text x="30" y="100" class="text-dark" font-size="24" font-weight="bold">98</text>
    <text x="70" y="100" class="text-medium" font-size="13">stories</text>
    <text x="280" y="100" class="primary" font-size="13" font-weight="600">Explore</text>
  </g>

  <!-- ========== FEATURES SECTION ========== -->
  <rect class="bg-white" x="0" y="1620" width="1440" height="520"/>

  <text x="720" y="1690" class="text-dark" font-size="36" font-weight="bold" text-anchor="middle">What Makes Us Different</text>
  <text x="720" y="1725" class="text-medium" font-size="16" text-anchor="middle">More than just stories - tools and proof that help you win too</text>

  <!-- Feature 1: Make It Your Own -->
  <g transform="translate(120, 1770)" class="shadow-sm">
    <rect class="card" width="360" height="320" rx="16"/>
    <rect class="icon-bg" x="30" y="30" width="60" height="60" rx="12"/>
    <text x="48" y="70" class="primary" font-size="28">*</text>
    <text x="30" y="130" class="text-dark" font-size="20" font-weight="bold">Make It Your Own</text>
    <text x="30" y="160" class="text-medium" font-size="14">Don't just read - adapt. Our interactive tool</text>
    <text x="30" y="180" class="text-medium" font-size="14">lets you customize any story's prompts for</text>
    <text x="30" y="200" class="text-medium" font-size="14">your specific situation.</text>
    <!-- Mini mockup -->
    <rect fill="#f8fafc" x="30" y="220" width="300" height="70" rx="8"/>
    <text x="45" y="245" class="text-light" font-size="11">Your company:</text>
    <rect fill="#ffffff" stroke="#e2e8f0" x="45" y="255" width="120" height="25" rx="4"/>
    <text x="55" y="272" class="text-light" font-size="10">Hertz, Avis...</text>
    <text x="185" y="272" class="primary" font-size="11" font-weight="600">Generate</text>
  </g>

  <!-- Feature 2: Verified Chat Sessions -->
  <g transform="translate(540, 1770)" class="shadow-sm">
    <rect class="card" width="360" height="320" rx="16"/>
    <rect class="icon-bg" x="30" y="30" width="60" height="60" rx="12"/>
    <text x="45" y="70" class="primary" font-size="24">✓</text>
    <text x="30" y="130" class="text-dark" font-size="20" font-weight="bold">Verified Chat Sessions</text>
    <text x="30" y="160" class="text-medium" font-size="14">Every story includes links to actual AI</text>
    <text x="30" y="180" class="text-medium" font-size="14">conversations. See the exact prompts and</text>
    <text x="30" y="200" class="text-medium" font-size="14">responses that led to each win.</text>
    <!-- Mini chat mockup -->
    <rect fill="#f8fafc" x="30" y="220" width="300" height="70" rx="8"/>
    <rect fill="#e2e8f0" x="45" y="235" width="150" height="20" rx="4"/>
    <text x="55" y="249" class="text-light" font-size="9">What are my legal options?</text>
    <rect fill="#dbeafe" x="105" y="260" width="180" height="20" rx="4"/>
    <text x="115" y="274" class="primary" font-size="9">Based on your evidence...</text>
  </g>

  <!-- Feature 3: Privacy Protected -->
  <g transform="translate(960, 1770)" class="shadow-sm">
    <rect class="card" width="360" height="320" rx="16"/>
    <rect class="icon-bg" x="30" y="30" width="60" height="60" rx="12"/>
    <text x="45" y="68" class="primary" font-size="22">🛡</text>
    <text x="30" y="130" class="text-dark" font-size="20" font-weight="bold">Privacy Protected</text>
    <text x="30" y="160" class="text-medium" font-size="14">Share your story without worry. Our AI</text>
    <text x="30" y="180" class="text-medium" font-size="14">automatically redacts names, addresses,</text>
    <text x="30" y="200" class="text-medium" font-size="14">and sensitive information before publishing.</text>
    <!-- Mini redaction mockup -->
    <rect fill="#f8fafc" x="30" y="220" width="300" height="70" rx="8"/>
    <text x="45" y="245" class="text-medium" font-size="11">My name is</text>
    <rect fill="#1e293b" x="115" y="232" width="80" height="18" rx="3"/>
    <text x="125" y="245" class="text-white" font-size="10">REDACTED</text>
    <text x="200" y="245" class="text-medium" font-size="11">and I live</text>
    <text x="45" y="265" class="text-medium" font-size="11">at</text>
    <rect fill="#1e293b" x="55" y="252" width="100" height="18" rx="3"/>
    <text x="70" y="265" class="text-white" font-size="10">REDACTED</text>
  </g>

  <!-- ========== HOW IT WORKS - DETAILED ========== -->
  <rect class="bg-slate" x="0" y="2140" width="1440" height="400"/>

  <text x="720" y="2200" class="text-dark" font-size="32" font-weight="bold" text-anchor="middle">How It Works</text>
  <text x="720" y="2235" class="text-medium" font-size="16" text-anchor="middle">From your win to helping others - in four simple steps</text>

  <!-- Step 1 -->
  <g transform="translate(140, 2280)">
    <rect class="card shadow-sm" width="260" height="180" rx="12"/>
    <circle class="primary" cx="130" cy="-15" r="24"/>
    <text x="130" y="-8" class="text-white" font-size="16" font-weight="bold" text-anchor="middle">1</text>
    <text x="130" y="50" class="text-dark" font-size="18" font-weight="bold" text-anchor="middle">Win with AI</text>
    <text x="130" y="80" class="text-medium" font-size="13" text-anchor="middle">Use Claude, ChatGPT, Gemini</text>
    <text x="130" y="100" class="text-medium" font-size="13" text-anchor="middle">or any AI to solve your</text>
    <text x="130" y="120" class="text-medium" font-size="13" text-anchor="middle">problem.</text>
  </g>

  <!-- Arrow 1 -->
  <g transform="translate(410, 2360)">
    <line x1="0" y1="0" x2="50" y2="0" stroke="#cbd5e1" stroke-width="2"/>
    <polygon points="50,-5 60,0 50,5" fill="#cbd5e1"/>
  </g>

  <!-- Step 2 -->
  <g transform="translate(480, 2280)">
    <rect class="card shadow-sm" width="260" height="180" rx="12"/>
    <circle class="primary" cx="130" cy="-15" r="24"/>
    <text x="130" y="-8" class="text-white" font-size="16" font-weight="bold" text-anchor="middle">2</text>
    <text x="130" y="50" class="text-dark" font-size="18" font-weight="bold" text-anchor="middle">Share Your Story</text>
    <text x="130" y="80" class="text-medium" font-size="13" text-anchor="middle">Submit your win with a link</text>
    <text x="130" y="100" class="text-medium" font-size="13" text-anchor="middle">to your AI chat session</text>
    <text x="130" y="120" class="text-medium" font-size="13" text-anchor="middle">as proof.</text>
  </g>

  <!-- Arrow 2 -->
  <g transform="translate(750, 2360)">
    <line x1="0" y1="0" x2="50" y2="0" stroke="#cbd5e1" stroke-width="2"/>
    <polygon points="50,-5 60,0 50,5" fill="#cbd5e1"/>
  </g>

  <!-- Step 3 -->
  <g transform="translate(820, 2280)">
    <rect class="card shadow-sm" width="260" height="180" rx="12"/>
    <circle class="primary" cx="130" cy="-15" r="24"/>
    <text x="130" y="-8" class="text-white" font-size="16" font-weight="bold" text-anchor="middle">3</text>
    <text x="130" y="50" class="text-dark" font-size="18" font-weight="bold" text-anchor="middle">We Protect Privacy</text>
    <text x="130" y="80" class="text-medium" font-size="13" text-anchor="middle">Our AI automatically</text>
    <text x="130" y="100" class="text-medium" font-size="13" text-anchor="middle">redacts sensitive info</text>
    <text x="130" y="120" class="text-medium" font-size="13" text-anchor="middle">before publishing.</text>
  </g>

  <!-- Arrow 3 -->
  <g transform="translate(1090, 2360)">
    <line x1="0" y1="0" x2="50" y2="0" stroke="#cbd5e1" stroke-width="2"/>
    <polygon points="50,-5 60,0 50,5" fill="#cbd5e1"/>
  </g>

  <!-- Step 4 -->
  <g transform="translate(1160, 2280)">
    <rect class="card shadow-sm" width="260" height="180" rx="12"/>
    <circle class="primary" cx="130" cy="-15" r="24"/>
    <text x="130" y="-8" class="text-white" font-size="16" font-weight="bold" text-anchor="middle">4</text>
    <text x="130" y="50" class="text-dark" font-size="18" font-weight="bold" text-anchor="middle">Inspire Others</text>
    <text x="130" y="80" class="text-medium" font-size="13" text-anchor="middle">Your story helps someone</text>
    <text x="130" y="100" class="text-medium" font-size="13" text-anchor="middle">else facing the same</text>
    <text x="130" y="120" class="text-medium" font-size="13" text-anchor="middle">challenge win too.</text>
  </g>

  <!-- ========== TESTIMONIALS SECTION ========== -->
  <rect class="bg-white" x="0" y="2540" width="1440" height="300"/>

  <text x="720" y="2600" class="text-dark" font-size="28" font-weight="bold" text-anchor="middle">What Our Community Says</text>

  <!-- Testimonial 1 -->
  <g transform="translate(120, 2640)">
    <rect class="quote-bg" width="380" height="160" rx="12"/>
    <text x="25" y="35" class="text-dark" font-size="32" font-weight="bold">"</text>
    <text x="25" y="60" class="text-medium" font-size="13" font-style="italic">I was about to hire a lawyer for $2,000. Found a</text>
    <text x="25" y="78" class="text-medium" font-size="13" font-style="italic">similar story here, used the prompts, and won my</text>
    <text x="25" y="96" class="text-medium" font-size="13" font-style="italic">case myself.</text>
    <circle fill="#cbd5e1" cx="40" cy="135" r="15"/>
    <text x="65" y="132" class="text-dark" font-size="12" font-weight="500">Sarah M.</text>
    <text x="65" y="148" class="text-light" font-size="11">Saved $2,400 on security deposit</text>
  </g>

  <!-- Testimonial 2 -->
  <g transform="translate(530, 2640)">
    <rect class="quote-bg" width="380" height="160" rx="12"/>
    <text x="25" y="35" class="text-dark" font-size="32" font-weight="bold">"</text>
    <text x="25" y="60" class="text-medium" font-size="13" font-style="italic">The 'Make It Your Own' feature is genius. I adapted</text>
    <text x="25" y="78" class="text-medium" font-size="13" font-style="italic">someone's insurance appeal letter for my situation</text>
    <text x="25" y="96" class="text-medium" font-size="13" font-style="italic">and it worked.</text>
    <circle fill="#cbd5e1" cx="40" cy="135" r="15"/>
    <text x="65" y="132" class="text-dark" font-size="12" font-weight="500">Lisa K.</text>
    <text x="65" y="148" class="text-light" font-size="11">Insurance claim approved: $12,000</text>
  </g>

  <!-- Testimonial 3 -->
  <g transform="translate(940, 2640)">
    <rect class="quote-bg" width="380" height="160" rx="12"/>
    <text x="25" y="35" class="text-dark" font-size="32" font-weight="bold">"</text>
    <text x="25" y="60" class="text-medium" font-size="13" font-style="italic">I was skeptical about AI for medical stuff, but seeing</text>
    <text x="25" y="78" class="text-medium" font-size="13" font-style="italic">real people's experiences with actual chat logs</text>
    <text x="25" y="96" class="text-medium" font-size="13" font-style="italic">convinced me to try.</text>
    <circle fill="#cbd5e1" cx="40" cy="135" r="15"/>
    <text x="65" y="132" class="text-dark" font-size="12" font-weight="500">Raj P.</text>
    <text x="65" y="148" class="text-light" font-size="11">Kidney stone diagnosis confirmed</text>
  </g>

  <!-- ========== FINAL CTA ========== -->
  <rect class="bg-dark" x="0" y="2840" width="1440" height="180"/>

  <text x="720" y="2905" class="text-white" font-size="32" font-weight="bold" text-anchor="middle">Have an AI win? Share it.</text>
  <text x="720" y="2940" class="text-light" font-size="16" text-anchor="middle">Your story could help someone facing the same challenge.</text>

  <rect class="primary-glow" x="595" y="2965" width="250" height="50" rx="8"/>
  <text x="665" y="2997" class="text-white" font-size="16" font-weight="600">Share Your Story</text>

  <!-- ========== DETAILED FOOTER ========== -->
  <rect class="footer-dark" x="0" y="3020" width="1440" height="380"/>

  <!-- Footer Top Section -->
  <g transform="translate(120, 3060)">
    <!-- Brand Column -->
    <g transform="translate(0, 0)">
      <text x="0" y="0" class="text-white" font-size="22" font-weight="bold">AI Saved Me</text>
      <text x="0" y="30" class="text-light" font-size="13">Real people sharing real AI wins.</text>
      <text x="0" y="50" class="text-light" font-size="13">Verified stories. Actionable prompts.</text>
      <!-- Social Icons -->
      <g transform="translate(0, 80)">
        <circle fill="#334155" cx="15" cy="15" r="15"/>
        <text x="15" y="20" class="text-light" font-size="12" text-anchor="middle">X</text>
        <circle fill="#334155" cx="55" cy="15" r="15"/>
        <text x="55" y="20" class="text-light" font-size="12" text-anchor="middle">in</text>
        <circle fill="#334155" cx="95" cy="15" r="15"/>
        <text x="95" y="20" class="text-light" font-size="12" text-anchor="middle">fb</text>
      </g>
    </g>

    <!-- Stories Column -->
    <g transform="translate(350, 0)">
      <text x="0" y="0" class="text-white" font-size="14" font-weight="600">STORIES</text>
      <text x="0" y="35" class="text-light" font-size="13">Browse All Stories</text>
      <text x="0" y="60" class="text-light" font-size="13">Legal Wins</text>
      <text x="0" y="85" class="text-light" font-size="13">Medical Wins</text>
      <text x="0" y="110" class="text-light" font-size="13">Featured Stories</text>
      <text x="0" y="135" class="text-light" font-size="13">Recent Wins</text>
    </g>

    <!-- Resources Column -->
    <g transform="translate(550, 0)">
      <text x="0" y="0" class="text-white" font-size="14" font-weight="600">RESOURCES</text>
      <text x="0" y="35" class="text-light" font-size="13">How It Works</text>
      <text x="0" y="60" class="text-light" font-size="13">Submission Guidelines</text>
      <text x="0" y="85" class="text-light" font-size="13">AI Tools Guide</text>
      <text x="0" y="110" class="text-light" font-size="13">FAQ</text>
      <text x="0" y="135" class="text-light" font-size="13">Contact Us</text>
    </g>

    <!-- Legal Column -->
    <g transform="translate(780, 0)">
      <text x="0" y="0" class="text-white" font-size="14" font-weight="600">LEGAL</text>
      <text x="0" y="35" class="text-light" font-size="13">Privacy Policy</text>
      <text x="0" y="60" class="text-light" font-size="13">Terms of Service</text>
      <text x="0" y="85" class="text-light" font-size="13">Medical Disclaimer</text>
      <text x="0" y="110" class="text-light" font-size="13">Legal Disclaimer</text>
      <text x="0" y="135" class="text-light" font-size="13">Cookie Policy</text>
    </g>

    <!-- Newsletter Column -->
    <g transform="translate(1000, 0)">
      <text x="0" y="0" class="text-white" font-size="14" font-weight="600">STAY UPDATED</text>
      <text x="0" y="30" class="text-light" font-size="13">Get weekly wins in your inbox</text>
      <rect class="footer-section" x="0" y="50" width="200" height="40" rx="6"/>
      <text x="15" y="75" class="text-light" font-size="12">you@email.com</text>
      <rect class="primary" x="210" y="50" width="80" height="40" rx="6"/>
      <text x="225" y="75" class="text-white" font-size="12" font-weight="500">Subscribe</text>
    </g>
  </g>

  <!-- Footer Divider -->
  <line x1="120" y1="3280" x2="1320" y2="3280" stroke="#334155" stroke-width="1"/>

  <!-- Footer Bottom -->
  <g transform="translate(120, 3310)">
    <text x="0" y="0" class="text-light" font-size="12">© 2024 AI Saved Me. All rights reserved.</text>
    <text x="600" y="0" class="text-light" font-size="12" text-anchor="middle">aisaved.me</text>
    <text x="1200" y="0" class="text-light" font-size="12" text-anchor="end">Made with AI (of course)</text>
  </g>

  <!-- ========== ANNOTATIONS ========== -->
  <rect class="annotation-box" x="1250" y="1800" width="170" height="80" rx="4"/>
  <text x="1260" y="1825" class="annotation" font-size="11">Features section shows</text>
  <text x="1260" y="1840" class="annotation" font-size="11">unique value props with</text>
  <text x="1260" y="1855" class="annotation" font-size="11">mini interactive</text>
  <text x="1260" y="1870" class="annotation" font-size="11">mockups inside cards</text>

  <rect class="annotation-box" x="20" y="3100" width="170" height="70" rx="4"/>
  <text x="30" y="3125" class="annotation" font-size="11">SEO-friendly footer</text>
  <text x="30" y="3140" class="annotation" font-size="11">with internal links,</text>
  <text x="30" y="3155" class="annotation" font-size="11">categories, legal pages</text>
</svg>
