<svg xmlns="http://www.w3.org/2000/svg" viewBox="0 0 1440 1800" width="1440" height="1800">
  <defs>
    <style>
      .bg { fill: #fafafa; }
      .card { fill: #ffffff; stroke: #e5e7eb; stroke-width: 1; }
      .primary { fill: #2563eb; }
      .primary-light { fill: #dbeafe; }
      .secondary { fill: #059669; }
      .text-dark { fill: #111827; font-family: system-ui, sans-serif; }
      .text-medium { fill: #374151; font-family: system-ui, sans-serif; }
      .text-light { fill: #6b7280; font-family: system-ui, sans-serif; }
      .text-white { fill: #ffffff; font-family: system-ui, sans-serif; }
      .border { stroke: #e5e7eb; stroke-width: 1; fill: none; }
      .legal-tag { fill: #fef3c7; }
      .legal-text { fill: #92400e; }
      .medical-tag { fill: #d1fae5; }
      .medical-text { fill: #065f46; }
      .shadow { filter: drop-shadow(0 2px 4px rgba(0, 0, 0, 0.05)); }
      .input { fill: #ffffff; stroke: #d1d5db; stroke-width: 1; }
      .checkbox { fill: #ffffff; stroke: #d1d5db; stroke-width: 2; }
      .checkbox-checked { fill: #2563eb; stroke: #2563eb; stroke-width: 2; }
      .annotation { fill: #dc2626; font-family: system-ui, sans-serif; font-style: italic; }
      .annotation-box { fill: #fef2f2; stroke: #dc2626; stroke-width: 1; stroke-dasharray: 4; }
    </style>
  </defs>

  <!-- Background -->
  <rect class="bg" width="1440" height="1800"/>

  <!-- ========== HEADER/NAV ========== -->
  <rect class="card" x="0" y="0" width="1440" height="72"/>
  <text x="80" y="44" class="text-dark" font-size="24" font-weight="bold">AI Saved Me</text>
  <text x="700" y="44" class="text-medium" font-size="16">Stories</text>
  <text x="800" y="44" class="text-medium" font-size="16">Categories</text>
  <text x="920" y="44" class="text-medium" font-size="16">How It Works</text>
  <rect class="card" x="1100" y="20" width="100" height="36" rx="6"/>
  <text x="1125" y="44" class="text-medium" font-size="14">Sign In</text>
  <rect class="primary" x="1220" y="20" width="140" height="36" rx="6"/>
  <text x="1245" y="44" class="text-white" font-size="14" font-weight="500">Share Your Win</text>

  <!-- ========== PAGE HEADER ========== -->
  <rect fill="#f3f4f6" x="0" y="72" width="1440" height="120"/>
  <text x="80" y="130" class="text-dark" font-size="32" font-weight="bold">Browse Success Stories</text>
  <text x="80" y="165" class="text-light" font-size="16">Discover how others used AI to solve real problems</text>

  <!-- Search Bar -->
  <rect class="input" x="700" y="110" width="400" height="44" rx="8"/>
  <text x="720" y="138" class="text-light" font-size="14">Search stories...</text>
  <circle fill="#e5e7eb" cx="1070" cy="132" r="14"/>
  <text x="1065" y="137" class="text-light" font-size="14">Q</text>

  <!-- ========== FILTER SIDEBAR ========== -->
  <g transform="translate(80, 220)">
    <rect class="card shadow" width="280" height="700" rx="12"/>

    <!-- Filter Header -->
    <text x="20" y="40" class="text-dark" font-size="18" font-weight="bold">Filters</text>
    <text x="220" y="40" class="primary" font-size="14">Clear all</text>

    <line x1="20" y1="60" x2="260" y2="60" stroke="#e5e7eb" stroke-width="1"/>

    <!-- Category Filter -->
    <text x="20" y="95" class="text-dark" font-size="14" font-weight="600">Category</text>

    <rect class="checkbox-checked" x="20" y="115" width="18" height="18" rx="4"/>
    <text x="20" y="127" class="text-white" font-size="12" font-weight="bold" dx="4">✓</text>
    <text x="48" y="129" class="text-medium" font-size="14">Legal Wins</text>
    <text x="220" y="129" class="text-light" font-size="12">(142)</text>

    <rect class="checkbox" x="20" y="145" width="18" height="18" rx="4"/>
    <text x="48" y="159" class="text-medium" font-size="14">Medical Wins</text>
    <text x="220" y="159" class="text-light" font-size="12">(98)</text>

    <rect class="checkbox" x="20" y="175" width="18" height="18" rx="4"/>
    <text x="48" y="189" class="text-medium" font-size="14">Financial</text>
    <text x="220" y="189" class="text-light" font-size="12">(45)</text>

    <rect class="checkbox" x="20" y="205" width="18" height="18" rx="4"/>
    <text x="48" y="219" class="text-medium" font-size="14">Other</text>
    <text x="220" y="219" class="text-light" font-size="12">(23)</text>

    <line x1="20" y1="250" x2="260" y2="250" stroke="#e5e7eb" stroke-width="1"/>

    <!-- AI Tool Filter -->
    <text x="20" y="285" class="text-dark" font-size="14" font-weight="600">AI Tool Used</text>

    <rect class="checkbox-checked" x="20" y="305" width="18" height="18" rx="4"/>
    <text x="20" y="317" class="text-white" font-size="12" font-weight="bold" dx="4">✓</text>
    <text x="48" y="319" class="text-medium" font-size="14">Claude</text>
    <text x="220" y="319" class="text-light" font-size="12">(120)</text>

    <rect class="checkbox" x="20" y="335" width="18" height="18" rx="4"/>
    <text x="48" y="349" class="text-medium" font-size="14">ChatGPT</text>
    <text x="220" y="349" class="text-light" font-size="12">(95)</text>

    <rect class="checkbox" x="20" y="365" width="18" height="18" rx="4"/>
    <text x="48" y="379" class="text-medium" font-size="14">Gemini</text>
    <text x="220" y="379" class="text-light" font-size="12">(42)</text>

    <rect class="checkbox" x="20" y="395" width="18" height="18" rx="4"/>
    <text x="48" y="409" class="text-medium" font-size="14">Other</text>
    <text x="220" y="409" class="text-light" font-size="12">(18)</text>

    <line x1="20" y1="440" x2="260" y2="440" stroke="#e5e7eb" stroke-width="1"/>

    <!-- Outcome Type Filter -->
    <text x="20" y="475" class="text-dark" font-size="14" font-weight="600">Outcome Type</text>

    <rect class="checkbox" x="20" y="495" width="18" height="18" rx="4"/>
    <text x="48" y="509" class="text-medium" font-size="14">Money Saved</text>

    <rect class="checkbox" x="20" y="525" width="18" height="18" rx="4"/>
    <text x="48" y="539" class="text-medium" font-size="14">Dispute Won</text>

    <rect class="checkbox" x="20" y="555" width="18" height="18" rx="4"/>
    <text x="48" y="569" class="text-medium" font-size="14">Health Improved</text>

    <rect class="checkbox" x="20" y="585" width="18" height="18" rx="4"/>
    <text x="48" y="599" class="text-medium" font-size="14">Time Saved</text>

    <line x1="20" y1="630" x2="260" y2="630" stroke="#e5e7eb" stroke-width="1"/>

    <!-- Sort -->
    <text x="20" y="665" class="text-dark" font-size="14" font-weight="600">Sort by</text>
    <rect class="input" x="20" y="680" width="240" height="36" rx="6"/>
    <text x="35" y="704" class="text-medium" font-size="14">Most Recent</text>
    <text x="230" y="704" class="text-light" font-size="14">▼</text>
  </g>

  <!-- ========== RESULTS HEADER ========== -->
  <g transform="translate(400, 220)">
    <text x="0" y="30" class="text-dark" font-size="16" font-weight="600">Showing 142 stories</text>
    <text x="180" y="30" class="text-light" font-size="14">in Legal Wins with Claude</text>

    <!-- Active Filters -->
    <g transform="translate(0, 50)">
      <rect class="primary-light" x="0" y="0" width="100" height="28" rx="14"/>
      <text x="15" y="19" class="primary" font-size="12">Legal Wins ×</text>

      <rect class="primary-light" x="115" y="0" width="80" height="28" rx="14"/>
      <text x="130" y="19" class="primary" font-size="12">Claude ×</text>
    </g>
  </g>

  <!-- ========== STORY GRID ========== -->
  <!-- Row 1 -->
  <g transform="translate(400, 320)" class="shadow">
    <rect class="card" width="480" height="180" rx="12"/>
    <rect fill="#e5e7eb" x="0" y="0" width="160" height="180" rx="12 0 0 12"/>
    <text x="80" y="95" class="text-light" font-size="12" text-anchor="middle">Image</text>
    <rect class="legal-tag" x="175" y="20" width="60" height="24" rx="12"/>
    <text x="188" y="36" class="legal-text" font-size="11" font-weight="600">Legal</text>
    <text x="175" y="70" class="text-dark" font-size="16" font-weight="bold">How I Beat Enterprise's $3,200</text>
    <text x="175" y="90" class="text-dark" font-size="16" font-weight="bold">Damage Claim Using Claude</text>
    <text x="175" y="120" class="text-light" font-size="13">Used systematic evidence gathering and legal</text>
    <text x="175" y="138" class="text-light" font-size="13">research to defeat a wrongful damage claim.</text>
    <circle fill="#e5e7eb" cx="190" cy="165" r="10"/>
    <text x="208" y="169" class="text-light" font-size="12">Ankush D. · 5 min · $3,200 saved</text>
  </g>

  <g transform="translate(910, 320)" class="shadow">
    <rect class="card" width="480" height="180" rx="12"/>
    <rect fill="#e5e7eb" x="0" y="0" width="160" height="180" rx="12 0 0 12"/>
    <text x="80" y="95" class="text-light" font-size="12" text-anchor="middle">Image</text>
    <rect class="legal-tag" x="175" y="20" width="60" height="24" rx="12"/>
    <text x="188" y="36" class="legal-text" font-size="11" font-weight="600">Legal</text>
    <text x="175" y="70" class="text-dark" font-size="16" font-weight="bold">Tenant Rights Victory:</text>
    <text x="175" y="90" class="text-dark" font-size="16" font-weight="bold">Full Security Deposit Returned</text>
    <text x="175" y="120" class="text-light" font-size="13">Claude helped draft a demand letter</text>
    <text x="175" y="138" class="text-light" font-size="13">that got my $2,400 deposit back.</text>
    <circle fill="#e5e7eb" cx="190" cy="165" r="10"/>
    <text x="208" y="169" class="text-light" font-size="12">Sarah M. · 6 min · $2,400 saved</text>
  </g>

  <!-- Row 2 -->
  <g transform="translate(400, 520)" class="shadow">
    <rect class="card" width="480" height="180" rx="12"/>
    <rect fill="#e5e7eb" x="0" y="0" width="160" height="180" rx="12 0 0 12"/>
    <text x="80" y="95" class="text-light" font-size="12" text-anchor="middle">Image</text>
    <rect class="legal-tag" x="175" y="20" width="60" height="24" rx="12"/>
    <text x="188" y="36" class="legal-text" font-size="11" font-weight="600">Legal</text>
    <text x="175" y="70" class="text-dark" font-size="16" font-weight="bold">Small Claims Success: Contractor</text>
    <text x="175" y="90" class="text-dark" font-size="16" font-weight="bold">Paid Up After AI Legal Research</text>
    <text x="175" y="120" class="text-light" font-size="13">AI helped me understand contract law</text>
    <text x="175" y="138" class="text-light" font-size="13">and prepare a winning case.</text>
    <circle fill="#e5e7eb" cx="190" cy="165" r="10"/>
    <text x="208" y="169" class="text-light" font-size="12">Mike R. · 8 min · $5,500 saved</text>
  </g>

  <g transform="translate(910, 520)" class="shadow">
    <rect class="card" width="480" height="180" rx="12"/>
    <rect fill="#e5e7eb" x="0" y="0" width="160" height="180" rx="12 0 0 12"/>
    <text x="80" y="95" class="text-light" font-size="12" text-anchor="middle">Image</text>
    <rect class="legal-tag" x="175" y="20" width="60" height="24" rx="12"/>
    <text x="188" y="36" class="legal-text" font-size="11" font-weight="600">Legal</text>
    <text x="175" y="70" class="text-dark" font-size="16" font-weight="bold">Insurance Claim Denied?</text>
    <text x="175" y="90" class="text-dark" font-size="16" font-weight="bold">Here's How I Got It Approved</text>
    <text x="175" y="120" class="text-light" font-size="13">Used AI to analyze my policy and</text>
    <text x="175" y="138" class="text-light" font-size="13">draft an appeal that worked.</text>
    <circle fill="#e5e7eb" cx="190" cy="165" r="10"/>
    <text x="208" y="169" class="text-light" font-size="12">Lisa K. · 7 min · $12,000 saved</text>
  </g>

  <!-- Row 3 -->
  <g transform="translate(400, 720)" class="shadow">
    <rect class="card" width="480" height="180" rx="12"/>
    <rect fill="#e5e7eb" x="0" y="0" width="160" height="180" rx="12 0 0 12"/>
    <text x="80" y="95" class="text-light" font-size="12" text-anchor="middle">Image</text>
    <rect class="legal-tag" x="175" y="20" width="60" height="24" rx="12"/>
    <text x="188" y="36" class="legal-text" font-size="11" font-weight="600">Legal</text>
    <text x="175" y="70" class="text-dark" font-size="16" font-weight="bold">Disputing a Fraudulent Charge:</text>
    <text x="175" y="90" class="text-dark" font-size="16" font-weight="bold">Bank Reversed After AI Help</text>
    <text x="175" y="120" class="text-light" font-size="13">Claude helped me write a compelling</text>
    <text x="175" y="138" class="text-light" font-size="13">dispute letter with evidence.</text>
    <circle fill="#e5e7eb" cx="190" cy="165" r="10"/>
    <text x="208" y="169" class="text-light" font-size="12">James T. · 4 min · $890 saved</text>
  </g>

  <g transform="translate(910, 720)" class="shadow">
    <rect class="card" width="480" height="180" rx="12"/>
    <rect fill="#e5e7eb" x="0" y="0" width="160" height="180" rx="12 0 0 12"/>
    <text x="80" y="95" class="text-light" font-size="12" text-anchor="middle">Image</text>
    <rect class="legal-tag" x="175" y="20" width="60" height="24" rx="12"/>
    <text x="188" y="36" class="legal-text" font-size="11" font-weight="600">Legal</text>
    <text x="175" y="70" class="text-dark" font-size="16" font-weight="bold">HOA Fine Overturned Using</text>
    <text x="175" y="90" class="text-dark" font-size="16" font-weight="bold">AI-Assisted Research</text>
    <text x="175" y="120" class="text-light" font-size="13">Found precedents in HOA bylaws</text>
    <text x="175" y="138" class="text-light" font-size="13">that invalidated unfair fines.</text>
    <circle fill="#e5e7eb" cx="190" cy="165" r="10"/>
    <text x="208" y="169" class="text-light" font-size="12">David P. · 5 min · $1,500 saved</text>
  </g>

  <!-- Row 4 -->
  <g transform="translate(400, 920)" class="shadow">
    <rect class="card" width="480" height="180" rx="12"/>
    <rect fill="#e5e7eb" x="0" y="0" width="160" height="180" rx="12 0 0 12"/>
    <text x="80" y="95" class="text-light" font-size="12" text-anchor="middle">Image</text>
    <rect class="legal-tag" x="175" y="20" width="60" height="24" rx="12"/>
    <text x="188" y="36" class="legal-text" font-size="11" font-weight="600">Legal</text>
    <text x="175" y="70" class="text-dark" font-size="16" font-weight="bold">Employment Dispute: Getting</text>
    <text x="175" y="90" class="text-dark" font-size="16" font-weight="bold">Unpaid Wages with AI Help</text>
    <text x="175" y="120" class="text-light" font-size="13">AI helped me understand labor laws</text>
    <text x="175" y="138" class="text-light" font-size="13">and file a successful complaint.</text>
    <circle fill="#e5e7eb" cx="190" cy="165" r="10"/>
    <text x="208" y="169" class="text-light" font-size="12">Maria G. · 9 min · $4,200 saved</text>
  </g>

  <g transform="translate(910, 920)" class="shadow">
    <rect class="card" width="480" height="180" rx="12"/>
    <rect fill="#e5e7eb" x="0" y="0" width="160" height="180" rx="12 0 0 12"/>
    <text x="80" y="95" class="text-light" font-size="12" text-anchor="middle">Image</text>
    <rect class="legal-tag" x="175" y="20" width="60" height="24" rx="12"/>
    <text x="188" y="36" class="legal-text" font-size="11" font-weight="600">Legal</text>
    <text x="175" y="70" class="text-dark" font-size="16" font-weight="bold">Debt Collection Harassment:</text>
    <text x="175" y="90" class="text-dark" font-size="16" font-weight="bold">Stopped with AI-Drafted Letter</text>
    <text x="175" y="120" class="text-light" font-size="13">Claude helped me cite FDCPA laws</text>
    <text x="175" y="138" class="text-light" font-size="13">that made collectors back off.</text>
    <circle fill="#e5e7eb" cx="190" cy="165" r="10"/>
    <text x="208" y="169" class="text-light" font-size="12">Tom B. · 5 min · Debt forgiven</text>
  </g>

  <!-- ========== PAGINATION ========== -->
  <g transform="translate(700, 1150)">
    <rect class="card" x="0" y="0" width="36" height="36" rx="6"/>
    <text x="13" y="24" class="text-light" font-size="14">←</text>

    <rect class="primary" x="50" y="0" width="36" height="36" rx="6"/>
    <text x="64" y="24" class="text-white" font-size="14">1</text>

    <rect class="card" x="100" y="0" width="36" height="36" rx="6"/>
    <text x="114" y="24" class="text-medium" font-size="14">2</text>

    <rect class="card" x="150" y="0" width="36" height="36" rx="6"/>
    <text x="164" y="24" class="text-medium" font-size="14">3</text>

    <text x="210" y="24" class="text-light" font-size="14">...</text>

    <rect class="card" x="240" y="0" width="36" height="36" rx="6"/>
    <text x="250" y="24" class="text-medium" font-size="14">15</text>

    <rect class="card" x="290" y="0" width="36" height="36" rx="6"/>
    <text x="303" y="24" class="text-light" font-size="14">→</text>
  </g>

  <!-- ========== ANNOTATIONS ========== -->
  <rect class="annotation-box" x="20" y="950" width="180" height="80" rx="4"/>
  <text x="30" y="975" class="annotation" font-size="11">Filter sidebar:</text>
  <text x="30" y="990" class="annotation" font-size="11">- Multi-select checkboxes</text>
  <text x="30" y="1005" class="annotation" font-size="11">- Category, AI tool, outcome</text>
  <text x="30" y="1020" class="annotation" font-size="11">- Sort dropdown</text>

  <rect class="annotation-box" x="1250" y="320" width="170" height="70" rx="4"/>
  <text x="1260" y="345" class="annotation" font-size="11">Story cards:</text>
  <text x="1260" y="360" class="annotation" font-size="11">- Horizontal layout</text>
  <text x="1260" y="375" class="annotation" font-size="11">- Thumbnail, meta, excerpt</text>
  <text x="1260" y="390" class="annotation" font-size="11">- Money saved badge</text>

  <rect class="annotation-box" x="1250" y="150" width="170" height="50" rx="4"/>
  <text x="1260" y="170" class="annotation" font-size="11">Active filter pills</text>
  <text x="1260" y="185" class="annotation" font-size="11">with remove button</text>
</svg>
